<svg xmlns="http://www.w3.org/2000/svg" xml:space="preserve" xmlns:xlink="http://www.w3.org/1999/xlink" width="328"
     height="328" viewBox="0 0 328 328">
<desc/>
    <rect width="328" height="328" fill="none"/>
    <defs>
<rect id="p" width="8" height="8"/>
        <circle id="circle" r="4" stroke-width="0" fill="#f59e0b"/>
        <rect id="hor" width="8" height="2"/>
        <rect id="ver" width="2" height="8"/>
        <polygon id="3d1" points="0,0 8,0 0,8" stroke-width="0" fill="#f59e0b"/>
        <polygon id="3d2" points="0,8 8,0 8,8" stroke-width="0" fill="#f59e0b"/>
</defs>
    <g fill="#f59e0b">
<use x="16" y="16" xlink:href="#p"/>
        <use x="24" y="16" xlink:href="#p"/>
        <use x="32" y="16" xlink:href="#p"/>
        <use x="40" y="16" xlink:href="#p"/>
        <use x="48" y="16" xlink:href="#p"/>
        <use x="56" y="16" xlink:href="#p"/>
        <use x="64" y="16" xlink:href="#p"/>
        <use x="80" y="16" xlink:href="#p"/>
        <use x="88" y="16" xlink:href="#p"/>
        <use x="104" y="16" xlink:href="#p"/>
        <use x="120" y="16" xlink:href="#p"/>
        <use x="136" y="16" xlink:href="#p"/>
        <use x="144" y="16" xlink:href="#p"/>
        <use x="160" y="16" xlink:href="#p"/>
        <use x="168" y="16" xlink:href="#p"/>
        <use x="176" y="16" xlink:href="#p"/>
        <use x="184" y="16" xlink:href="#p"/>
        <use x="192" y="16" xlink:href="#p"/>
        <use x="240" y="16" xlink:href="#p"/>
        <use x="256" y="16" xlink:href="#p"/>
        <use x="264" y="16" xlink:href="#p"/>
        <use x="272" y="16" xlink:href="#p"/>
        <use x="280" y="16" xlink:href="#p"/>
        <use x="288" y="16" xlink:href="#p"/>
        <use x="296" y="16" xlink:href="#p"/>
        <use x="304" y="16" xlink:href="#p"/>
        <use x="16" y="24" xlink:href="#p"/>
        <use x="64" y="24" xlink:href="#p"/>
        <use x="80" y="24" xlink:href="#p"/>
        <use x="88" y="24" xlink:href="#p"/>
        <use x="96" y="24" xlink:href="#p"/>
        <use x="120" y="24" xlink:href="#p"/>
        <use x="128" y="24" xlink:href="#p"/>
        <use x="136" y="24" xlink:href="#p"/>
        <use x="144" y="24" xlink:href="#p"/>
        <use x="160" y="24" xlink:href="#p"/>
        <use x="168" y="24" xlink:href="#p"/>
        <use x="176" y="24" xlink:href="#p"/>
        <use x="192" y="24" xlink:href="#p"/>
        <use x="232" y="24" xlink:href="#p"/>
        <use x="240" y="24" xlink:href="#p"/>
        <use x="256" y="24" xlink:href="#p"/>
        <use x="304" y="24" xlink:href="#p"/>
        <use x="16" y="32" xlink:href="#p"/>
        <use x="32" y="32" xlink:href="#p"/>
        <use x="40" y="32" xlink:href="#p"/>
        <use x="48" y="32" xlink:href="#p"/>
        <use x="64" y="32" xlink:href="#p"/>
        <use x="80" y="32" xlink:href="#p"/>
        <use x="104" y="32" xlink:href="#p"/>
        <use x="112" y="32" xlink:href="#p"/>
        <use x="128" y="32" xlink:href="#p"/>
        <use x="152" y="32" xlink:href="#p"/>
        <use x="168" y="32" xlink:href="#p"/>
        <use x="184" y="32" xlink:href="#p"/>
        <use x="224" y="32" xlink:href="#p"/>
        <use x="240" y="32" xlink:href="#p"/>
        <use x="256" y="32" xlink:href="#p"/>
        <use x="272" y="32" xlink:href="#p"/>
        <use x="280" y="32" xlink:href="#p"/>
        <use x="288" y="32" xlink:href="#p"/>
        <use x="304" y="32" xlink:href="#p"/>
        <use x="16" y="40" xlink:href="#p"/>
        <use x="32" y="40" xlink:href="#p"/>
        <use x="40" y="40" xlink:href="#p"/>
        <use x="48" y="40" xlink:href="#p"/>
        <use x="64" y="40" xlink:href="#p"/>
        <use x="88" y="40" xlink:href="#p"/>
        <use x="112" y="40" xlink:href="#p"/>
        <use x="120" y="40" xlink:href="#p"/>
        <use x="152" y="40" xlink:href="#p"/>
        <use x="160" y="40" xlink:href="#p"/>
        <use x="176" y="40" xlink:href="#p"/>
        <use x="184" y="40" xlink:href="#p"/>
        <use x="216" y="40" xlink:href="#p"/>
        <use x="224" y="40" xlink:href="#p"/>
        <use x="256" y="40" xlink:href="#p"/>
        <use x="272" y="40" xlink:href="#p"/>
        <use x="280" y="40" xlink:href="#p"/>
        <use x="288" y="40" xlink:href="#p"/>
        <use x="304" y="40" xlink:href="#p"/>
        <use x="16" y="48" xlink:href="#p"/>
        <use x="32" y="48" xlink:href="#p"/>
        <use x="40" y="48" xlink:href="#p"/>
        <use x="48" y="48" xlink:href="#p"/>
        <use x="64" y="48" xlink:href="#p"/>
        <use x="136" y="48" xlink:href="#p"/>
        <use x="152" y="48" xlink:href="#p"/>
        <use x="184" y="48" xlink:href="#p"/>
        <use x="256" y="48" xlink:href="#p"/>
        <use x="272" y="48" xlink:href="#p"/>
        <use x="280" y="48" xlink:href="#p"/>
        <use x="288" y="48" xlink:href="#p"/>
        <use x="304" y="48" xlink:href="#p"/>
        <use x="16" y="56" xlink:href="#p"/>
        <use x="64" y="56" xlink:href="#p"/>
        <use x="80" y="56" xlink:href="#p"/>
        <use x="88" y="56" xlink:href="#p"/>
        <use x="104" y="56" xlink:href="#p"/>
        <use x="128" y="56" xlink:href="#p"/>
        <use x="136" y="56" xlink:href="#p"/>
        <use x="152" y="56" xlink:href="#p"/>
        <use x="168" y="56" xlink:href="#p"/>
        <use x="176" y="56" xlink:href="#p"/>
        <use x="184" y="56" xlink:href="#p"/>
        <use x="192" y="56" xlink:href="#p"/>
        <use x="208" y="56" xlink:href="#p"/>
        <use x="216" y="56" xlink:href="#p"/>
        <use x="232" y="56" xlink:href="#p"/>
        <use x="240" y="56" xlink:href="#p"/>
        <use x="256" y="56" xlink:href="#p"/>
        <use x="304" y="56" xlink:href="#p"/>
        <use x="16" y="64" xlink:href="#p"/>
        <use x="24" y="64" xlink:href="#p"/>
        <use x="32" y="64" xlink:href="#p"/>
        <use x="40" y="64" xlink:href="#p"/>
        <use x="48" y="64" xlink:href="#p"/>
        <use x="56" y="64" xlink:href="#p"/>
        <use x="64" y="64" xlink:href="#p"/>
        <use x="80" y="64" xlink:href="#p"/>
        <use x="96" y="64" xlink:href="#p"/>
        <use x="112" y="64" xlink:href="#p"/>
        <use x="128" y="64" xlink:href="#p"/>
        <use x="144" y="64" xlink:href="#p"/>
        <use x="160" y="64" xlink:href="#p"/>
        <use x="176" y="64" xlink:href="#p"/>
        <use x="192" y="64" xlink:href="#p"/>
        <use x="208" y="64" xlink:href="#p"/>
        <use x="224" y="64" xlink:href="#p"/>
        <use x="240" y="64" xlink:href="#p"/>
        <use x="256" y="64" xlink:href="#p"/>
        <use x="264" y="64" xlink:href="#p"/>
        <use x="272" y="64" xlink:href="#p"/>
        <use x="280" y="64" xlink:href="#p"/>
        <use x="288" y="64" xlink:href="#p"/>
        <use x="296" y="64" xlink:href="#p"/>
        <use x="304" y="64" xlink:href="#p"/>
        <use x="80" y="72" xlink:href="#p"/>
        <use x="88" y="72" xlink:href="#p"/>
        <use x="96" y="72" xlink:href="#p"/>
        <use x="104" y="72" xlink:href="#p"/>
        <use x="120" y="72" xlink:href="#p"/>
        <use x="144" y="72" xlink:href="#p"/>
        <use x="152" y="72" xlink:href="#p"/>
        <use x="168" y="72" xlink:href="#p"/>
        <use x="176" y="72" xlink:href="#p"/>
        <use x="184" y="72" xlink:href="#p"/>
        <use x="192" y="72" xlink:href="#p"/>
        <use x="208" y="72" xlink:href="#p"/>
        <use x="240" y="72" xlink:href="#p"/>
        <use x="32" y="80" xlink:href="#p"/>
        <use x="40" y="80" xlink:href="#p"/>
        <use x="48" y="80" xlink:href="#p"/>
        <use x="64" y="80" xlink:href="#p"/>
        <use x="80" y="80" xlink:href="#p"/>
        <use x="104" y="80" xlink:href="#p"/>
        <use x="112" y="80" xlink:href="#p"/>
        <use x="120" y="80" xlink:href="#p"/>
        <use x="152" y="80" xlink:href="#p"/>
        <use x="160" y="80" xlink:href="#p"/>
        <use x="184" y="80" xlink:href="#p"/>
        <use x="240" y="80" xlink:href="#p"/>
        <use x="248" y="80" xlink:href="#p"/>
        <use x="256" y="80" xlink:href="#p"/>
        <use x="264" y="80" xlink:href="#p"/>
        <use x="288" y="80" xlink:href="#p"/>
        <use x="296" y="80" xlink:href="#p"/>
        <use x="304" y="80" xlink:href="#p"/>
        <use x="32" y="88" xlink:href="#p"/>
        <use x="40" y="88" xlink:href="#p"/>
        <use x="72" y="88" xlink:href="#p"/>
        <use x="88" y="88" xlink:href="#p"/>
        <use x="136" y="88" xlink:href="#p"/>
        <use x="144" y="88" xlink:href="#p"/>
        <use x="152" y="88" xlink:href="#p"/>
        <use x="160" y="88" xlink:href="#p"/>
        <use x="168" y="88" xlink:href="#p"/>
        <use x="192" y="88" xlink:href="#p"/>
        <use x="208" y="88" xlink:href="#p"/>
        <use x="216" y="88" xlink:href="#p"/>
        <use x="232" y="88" xlink:href="#p"/>
        <use x="240" y="88" xlink:href="#p"/>
        <use x="264" y="88" xlink:href="#p"/>
        <use x="280" y="88" xlink:href="#p"/>
        <use x="288" y="88" xlink:href="#p"/>
        <use x="16" y="96" xlink:href="#p"/>
        <use x="32" y="96" xlink:href="#p"/>
        <use x="40" y="96" xlink:href="#p"/>
        <use x="64" y="96" xlink:href="#p"/>
        <use x="80" y="96" xlink:href="#p"/>
        <use x="88" y="96" xlink:href="#p"/>
        <use x="96" y="96" xlink:href="#p"/>
        <use x="120" y="96" xlink:href="#p"/>
        <use x="128" y="96" xlink:href="#p"/>
        <use x="144" y="96" xlink:href="#p"/>
        <use x="152" y="96" xlink:href="#p"/>
        <use x="160" y="96" xlink:href="#p"/>
        <use x="176" y="96" xlink:href="#p"/>
        <use x="200" y="96" xlink:href="#p"/>
        <use x="208" y="96" xlink:href="#p"/>
        <use x="216" y="96" xlink:href="#p"/>
        <use x="224" y="96" xlink:href="#p"/>
        <use x="232" y="96" xlink:href="#p"/>
        <use x="240" y="96" xlink:href="#p"/>
        <use x="256" y="96" xlink:href="#p"/>
        <use x="264" y="96" xlink:href="#p"/>
        <use x="296" y="96" xlink:href="#p"/>
        <use x="304" y="96" xlink:href="#p"/>
        <use x="16" y="104" xlink:href="#p"/>
        <use x="24" y="104" xlink:href="#p"/>
        <use x="32" y="104" xlink:href="#p"/>
        <use x="48" y="104" xlink:href="#p"/>
        <use x="112" y="104" xlink:href="#p"/>
        <use x="120" y="104" xlink:href="#p"/>
        <use x="128" y="104" xlink:href="#p"/>
        <use x="136" y="104" xlink:href="#p"/>
        <use x="152" y="104" xlink:href="#p"/>
        <use x="160" y="104" xlink:href="#p"/>
        <use x="168" y="104" xlink:href="#p"/>
        <use x="176" y="104" xlink:href="#p"/>
        <use x="184" y="104" xlink:href="#p"/>
        <use x="192" y="104" xlink:href="#p"/>
        <use x="208" y="104" xlink:href="#p"/>
        <use x="224" y="104" xlink:href="#p"/>
        <use x="256" y="104" xlink:href="#p"/>
        <use x="296" y="104" xlink:href="#p"/>
        <use x="304" y="104" xlink:href="#p"/>
        <use x="32" y="112" xlink:href="#p"/>
        <use x="64" y="112" xlink:href="#p"/>
        <use x="80" y="112" xlink:href="#p"/>
        <use x="88" y="112" xlink:href="#p"/>
        <use x="96" y="112" xlink:href="#p"/>
        <use x="112" y="112" xlink:href="#p"/>
        <use x="120" y="112" xlink:href="#p"/>
        <use x="128" y="112" xlink:href="#p"/>
        <use x="136" y="112" xlink:href="#p"/>
        <use x="152" y="112" xlink:href="#p"/>
        <use x="160" y="112" xlink:href="#p"/>
        <use x="192" y="112" xlink:href="#p"/>
        <use x="200" y="112" xlink:href="#p"/>
        <use x="208" y="112" xlink:href="#p"/>
        <use x="216" y="112" xlink:href="#p"/>
        <use x="224" y="112" xlink:href="#p"/>
        <use x="232" y="112" xlink:href="#p"/>
        <use x="240" y="112" xlink:href="#p"/>
        <use x="248" y="112" xlink:href="#p"/>
        <use x="256" y="112" xlink:href="#p"/>
        <use x="280" y="112" xlink:href="#p"/>
        <use x="288" y="112" xlink:href="#p"/>
        <use x="16" y="120" xlink:href="#p"/>
        <use x="56" y="120" xlink:href="#p"/>
        <use x="72" y="120" xlink:href="#p"/>
        <use x="80" y="120" xlink:href="#p"/>
        <use x="88" y="120" xlink:href="#p"/>
        <use x="96" y="120" xlink:href="#p"/>
        <use x="104" y="120" xlink:href="#p"/>
        <use x="128" y="120" xlink:href="#p"/>
        <use x="176" y="120" xlink:href="#p"/>
        <use x="192" y="120" xlink:href="#p"/>
        <use x="200" y="120" xlink:href="#p"/>
        <use x="216" y="120" xlink:href="#p"/>
        <use x="232" y="120" xlink:href="#p"/>
        <use x="240" y="120" xlink:href="#p"/>
        <use x="248" y="120" xlink:href="#p"/>
        <use x="264" y="120" xlink:href="#p"/>
        <use x="280" y="120" xlink:href="#p"/>
        <use x="288" y="120" xlink:href="#p"/>
        <use x="24" y="128" xlink:href="#p"/>
        <use x="48" y="128" xlink:href="#p"/>
        <use x="56" y="128" xlink:href="#p"/>
        <use x="64" y="128" xlink:href="#p"/>
        <use x="80" y="128" xlink:href="#p"/>
        <use x="88" y="128" xlink:href="#p"/>
        <use x="96" y="128" xlink:href="#p"/>
        <use x="112" y="128" xlink:href="#p"/>
        <use x="128" y="128" xlink:href="#p"/>
        <use x="144" y="128" xlink:href="#p"/>
        <use x="160" y="128" xlink:href="#p"/>
        <use x="176" y="128" xlink:href="#p"/>
        <use x="208" y="128" xlink:href="#p"/>
        <use x="224" y="128" xlink:href="#p"/>
        <use x="232" y="128" xlink:href="#p"/>
        <use x="240" y="128" xlink:href="#p"/>
        <use x="256" y="128" xlink:href="#p"/>
        <use x="264" y="128" xlink:href="#p"/>
        <use x="272" y="128" xlink:href="#p"/>
        <use x="280" y="128" xlink:href="#p"/>
        <use x="296" y="128" xlink:href="#p"/>
        <use x="304" y="128" xlink:href="#p"/>
        <use x="24" y="136" xlink:href="#p"/>
        <use x="32" y="136" xlink:href="#p"/>
        <use x="40" y="136" xlink:href="#p"/>
        <use x="72" y="136" xlink:href="#p"/>
        <use x="80" y="136" xlink:href="#p"/>
        <use x="104" y="136" xlink:href="#p"/>
        <use x="120" y="136" xlink:href="#p"/>
        <use x="128" y="136" xlink:href="#p"/>
        <use x="144" y="136" xlink:href="#p"/>
        <use x="176" y="136" xlink:href="#p"/>
        <use x="184" y="136" xlink:href="#p"/>
        <use x="192" y="136" xlink:href="#p"/>
        <use x="200" y="136" xlink:href="#p"/>
        <use x="208" y="136" xlink:href="#p"/>
        <use x="224" y="136" xlink:href="#p"/>
        <use x="232" y="136" xlink:href="#p"/>
        <use x="240" y="136" xlink:href="#p"/>
        <use x="264" y="136" xlink:href="#p"/>
        <use x="272" y="136" xlink:href="#p"/>
        <use x="296" y="136" xlink:href="#p"/>
        <use x="304" y="136" xlink:href="#p"/>
        <use x="32" y="144" xlink:href="#p"/>
        <use x="64" y="144" xlink:href="#p"/>
        <use x="72" y="144" xlink:href="#p"/>
        <use x="80" y="144" xlink:href="#p"/>
        <use x="112" y="144" xlink:href="#p"/>
        <use x="120" y="144" xlink:href="#p"/>
        <use x="136" y="144" xlink:href="#p"/>
        <use x="144" y="144" xlink:href="#p"/>
        <use x="152" y="144" xlink:href="#p"/>
        <use x="168" y="144" xlink:href="#p"/>
        <use x="176" y="144" xlink:href="#p"/>
        <use x="184" y="144" xlink:href="#p"/>
        <use x="216" y="144" xlink:href="#p"/>
        <use x="232" y="144" xlink:href="#p"/>
        <use x="256" y="144" xlink:href="#p"/>
        <use x="264" y="144" xlink:href="#p"/>
        <use x="272" y="144" xlink:href="#p"/>
        <use x="288" y="144" xlink:href="#p"/>
        <use x="296" y="144" xlink:href="#p"/>
        <use x="304" y="144" xlink:href="#p"/>
        <use x="16" y="152" xlink:href="#p"/>
        <use x="32" y="152" xlink:href="#p"/>
        <use x="48" y="152" xlink:href="#p"/>
        <use x="72" y="152" xlink:href="#p"/>
        <use x="88" y="152" xlink:href="#p"/>
        <use x="104" y="152" xlink:href="#p"/>
        <use x="112" y="152" xlink:href="#p"/>
        <use x="120" y="152" xlink:href="#p"/>
        <use x="144" y="152" xlink:href="#p"/>
        <use x="152" y="152" xlink:href="#p"/>
        <use x="176" y="152" xlink:href="#p"/>
        <use x="240" y="152" xlink:href="#p"/>
        <use x="264" y="152" xlink:href="#p"/>
        <use x="16" y="160" xlink:href="#p"/>
        <use x="24" y="160" xlink:href="#p"/>
        <use x="32" y="160" xlink:href="#p"/>
        <use x="40" y="160" xlink:href="#p"/>
        <use x="48" y="160" xlink:href="#p"/>
        <use x="64" y="160" xlink:href="#p"/>
        <use x="72" y="160" xlink:href="#p"/>
        <use x="88" y="160" xlink:href="#p"/>
        <use x="96" y="160" xlink:href="#p"/>
        <use x="104" y="160" xlink:href="#p"/>
        <use x="120" y="160" xlink:href="#p"/>
        <use x="136" y="160" xlink:href="#p"/>
        <use x="144" y="160" xlink:href="#p"/>
        <use x="160" y="160" xlink:href="#p"/>
        <use x="168" y="160" xlink:href="#p"/>
        <use x="176" y="160" xlink:href="#p"/>
        <use x="192" y="160" xlink:href="#p"/>
        <use x="216" y="160" xlink:href="#p"/>
        <use x="232" y="160" xlink:href="#p"/>
        <use x="240" y="160" xlink:href="#p"/>
        <use x="264" y="160" xlink:href="#p"/>
        <use x="296" y="160" xlink:href="#p"/>
        <use x="304" y="160" xlink:href="#p"/>
        <use x="16" y="168" xlink:href="#p"/>
        <use x="24" y="168" xlink:href="#p"/>
        <use x="32" y="168" xlink:href="#p"/>
        <use x="56" y="168" xlink:href="#p"/>
        <use x="72" y="168" xlink:href="#p"/>
        <use x="80" y="168" xlink:href="#p"/>
        <use x="136" y="168" xlink:href="#p"/>
        <use x="160" y="168" xlink:href="#p"/>
        <use x="176" y="168" xlink:href="#p"/>
        <use x="184" y="168" xlink:href="#p"/>
        <use x="200" y="168" xlink:href="#p"/>
        <use x="256" y="168" xlink:href="#p"/>
        <use x="280" y="168" xlink:href="#p"/>
        <use x="296" y="168" xlink:href="#p"/>
        <use x="304" y="168" xlink:href="#p"/>
        <use x="16" y="176" xlink:href="#p"/>
        <use x="24" y="176" xlink:href="#p"/>
        <use x="40" y="176" xlink:href="#p"/>
        <use x="48" y="176" xlink:href="#p"/>
        <use x="64" y="176" xlink:href="#p"/>
        <use x="80" y="176" xlink:href="#p"/>
        <use x="88" y="176" xlink:href="#p"/>
        <use x="128" y="176" xlink:href="#p"/>
        <use x="144" y="176" xlink:href="#p"/>
        <use x="152" y="176" xlink:href="#p"/>
        <use x="176" y="176" xlink:href="#p"/>
        <use x="224" y="176" xlink:href="#p"/>
        <use x="232" y="176" xlink:href="#p"/>
        <use x="248" y="176" xlink:href="#p"/>
        <use x="256" y="176" xlink:href="#p"/>
        <use x="264" y="176" xlink:href="#p"/>
        <use x="272" y="176" xlink:href="#p"/>
        <use x="280" y="176" xlink:href="#p"/>
        <use x="288" y="176" xlink:href="#p"/>
        <use x="16" y="184" xlink:href="#p"/>
        <use x="24" y="184" xlink:href="#p"/>
        <use x="48" y="184" xlink:href="#p"/>
        <use x="56" y="184" xlink:href="#p"/>
        <use x="80" y="184" xlink:href="#p"/>
        <use x="88" y="184" xlink:href="#p"/>
        <use x="96" y="184" xlink:href="#p"/>
        <use x="128" y="184" xlink:href="#p"/>
        <use x="136" y="184" xlink:href="#p"/>
        <use x="144" y="184" xlink:href="#p"/>
        <use x="152" y="184" xlink:href="#p"/>
        <use x="168" y="184" xlink:href="#p"/>
        <use x="192" y="184" xlink:href="#p"/>
        <use x="200" y="184" xlink:href="#p"/>
        <use x="216" y="184" xlink:href="#p"/>
        <use x="224" y="184" xlink:href="#p"/>
        <use x="264" y="184" xlink:href="#p"/>
        <use x="288" y="184" xlink:href="#p"/>
        <use x="296" y="184" xlink:href="#p"/>
        <use x="24" y="192" xlink:href="#p"/>
        <use x="64" y="192" xlink:href="#p"/>
        <use x="96" y="192" xlink:href="#p"/>
        <use x="112" y="192" xlink:href="#p"/>
        <use x="120" y="192" xlink:href="#p"/>
        <use x="128" y="192" xlink:href="#p"/>
        <use x="136" y="192" xlink:href="#p"/>
        <use x="152" y="192" xlink:href="#p"/>
        <use x="160" y="192" xlink:href="#p"/>
        <use x="168" y="192" xlink:href="#p"/>
        <use x="208" y="192" xlink:href="#p"/>
        <use x="216" y="192" xlink:href="#p"/>
        <use x="224" y="192" xlink:href="#p"/>
        <use x="232" y="192" xlink:href="#p"/>
        <use x="256" y="192" xlink:href="#p"/>
        <use x="280" y="192" xlink:href="#p"/>
        <use x="288" y="192" xlink:href="#p"/>
        <use x="296" y="192" xlink:href="#p"/>
        <use x="304" y="192" xlink:href="#p"/>
        <use x="56" y="200" xlink:href="#p"/>
        <use x="80" y="200" xlink:href="#p"/>
        <use x="88" y="200" xlink:href="#p"/>
        <use x="96" y="200" xlink:href="#p"/>
        <use x="128" y="200" xlink:href="#p"/>
        <use x="136" y="200" xlink:href="#p"/>
        <use x="168" y="200" xlink:href="#p"/>
        <use x="184" y="200" xlink:href="#p"/>
        <use x="192" y="200" xlink:href="#p"/>
        <use x="200" y="200" xlink:href="#p"/>
        <use x="216" y="200" xlink:href="#p"/>
        <use x="248" y="200" xlink:href="#p"/>
        <use x="256" y="200" xlink:href="#p"/>
        <use x="264" y="200" xlink:href="#p"/>
        <use x="16" y="208" xlink:href="#p"/>
        <use x="32" y="208" xlink:href="#p"/>
        <use x="48" y="208" xlink:href="#p"/>
        <use x="56" y="208" xlink:href="#p"/>
        <use x="64" y="208" xlink:href="#p"/>
        <use x="80" y="208" xlink:href="#p"/>
        <use x="88" y="208" xlink:href="#p"/>
        <use x="96" y="208" xlink:href="#p"/>
        <use x="104" y="208" xlink:href="#p"/>
        <use x="128" y="208" xlink:href="#p"/>
        <use x="152" y="208" xlink:href="#p"/>
        <use x="160" y="208" xlink:href="#p"/>
        <use x="168" y="208" xlink:href="#p"/>
        <use x="192" y="208" xlink:href="#p"/>
        <use x="208" y="208" xlink:href="#p"/>
        <use x="224" y="208" xlink:href="#p"/>
        <use x="248" y="208" xlink:href="#p"/>
        <use x="256" y="208" xlink:href="#p"/>
        <use x="264" y="208" xlink:href="#p"/>
        <use x="272" y="208" xlink:href="#p"/>
        <use x="280" y="208" xlink:href="#p"/>
        <use x="288" y="208" xlink:href="#p"/>
        <use x="296" y="208" xlink:href="#p"/>
        <use x="304" y="208" xlink:href="#p"/>
        <use x="16" y="216" xlink:href="#p"/>
        <use x="32" y="216" xlink:href="#p"/>
        <use x="56" y="216" xlink:href="#p"/>
        <use x="88" y="216" xlink:href="#p"/>
        <use x="96" y="216" xlink:href="#p"/>
        <use x="104" y="216" xlink:href="#p"/>
        <use x="120" y="216" xlink:href="#p"/>
        <use x="136" y="216" xlink:href="#p"/>
        <use x="144" y="216" xlink:href="#p"/>
        <use x="152" y="216" xlink:href="#p"/>
        <use x="160" y="216" xlink:href="#p"/>
        <use x="184" y="216" xlink:href="#p"/>
        <use x="192" y="216" xlink:href="#p"/>
        <use x="240" y="216" xlink:href="#p"/>
        <use x="256" y="216" xlink:href="#p"/>
        <use x="280" y="216" xlink:href="#p"/>
        <use x="16" y="224" xlink:href="#p"/>
        <use x="40" y="224" xlink:href="#p"/>
        <use x="48" y="224" xlink:href="#p"/>
        <use x="64" y="224" xlink:href="#p"/>
        <use x="96" y="224" xlink:href="#p"/>
        <use x="104" y="224" xlink:href="#p"/>
        <use x="112" y="224" xlink:href="#p"/>
        <use x="128" y="224" xlink:href="#p"/>
        <use x="136" y="224" xlink:href="#p"/>
        <use x="144" y="224" xlink:href="#p"/>
        <use x="160" y="224" xlink:href="#p"/>
        <use x="176" y="224" xlink:href="#p"/>
        <use x="192" y="224" xlink:href="#p"/>
        <use x="200" y="224" xlink:href="#p"/>
        <use x="208" y="224" xlink:href="#p"/>
        <use x="216" y="224" xlink:href="#p"/>
        <use x="224" y="224" xlink:href="#p"/>
        <use x="232" y="224" xlink:href="#p"/>
        <use x="240" y="224" xlink:href="#p"/>
        <use x="256" y="224" xlink:href="#p"/>
        <use x="264" y="224" xlink:href="#p"/>
        <use x="272" y="224" xlink:href="#p"/>
        <use x="296" y="224" xlink:href="#p"/>
        <use x="304" y="224" xlink:href="#p"/>
        <use x="16" y="232" xlink:href="#p"/>
        <use x="40" y="232" xlink:href="#p"/>
        <use x="56" y="232" xlink:href="#p"/>
        <use x="72" y="232" xlink:href="#p"/>
        <use x="80" y="232" xlink:href="#p"/>
        <use x="112" y="232" xlink:href="#p"/>
        <use x="168" y="232" xlink:href="#p"/>
        <use x="176" y="232" xlink:href="#p"/>
        <use x="184" y="232" xlink:href="#p"/>
        <use x="192" y="232" xlink:href="#p"/>
        <use x="200" y="232" xlink:href="#p"/>
        <use x="240" y="232" xlink:href="#p"/>
        <use x="248" y="232" xlink:href="#p"/>
        <use x="264" y="232" xlink:href="#p"/>
        <use x="272" y="232" xlink:href="#p"/>
        <use x="304" y="232" xlink:href="#p"/>
        <use x="16" y="240" xlink:href="#p"/>
        <use x="40" y="240" xlink:href="#p"/>
        <use x="64" y="240" xlink:href="#p"/>
        <use x="72" y="240" xlink:href="#p"/>
        <use x="104" y="240" xlink:href="#p"/>
        <use x="112" y="240" xlink:href="#p"/>
        <use x="120" y="240" xlink:href="#p"/>
        <use x="128" y="240" xlink:href="#p"/>
        <use x="144" y="240" xlink:href="#p"/>
        <use x="168" y="240" xlink:href="#p"/>
        <use x="200" y="240" xlink:href="#p"/>
        <use x="208" y="240" xlink:href="#p"/>
        <use x="216" y="240" xlink:href="#p"/>
        <use x="224" y="240" xlink:href="#p"/>
        <use x="240" y="240" xlink:href="#p"/>
        <use x="248" y="240" xlink:href="#p"/>
        <use x="256" y="240" xlink:href="#p"/>
        <use x="264" y="240" xlink:href="#p"/>
        <use x="272" y="240" xlink:href="#p"/>
        <use x="296" y="240" xlink:href="#p"/>
        <use x="80" y="248" xlink:href="#p"/>
        <use x="96" y="248" xlink:href="#p"/>
        <use x="104" y="248" xlink:href="#p"/>
        <use x="112" y="248" xlink:href="#p"/>
        <use x="128" y="248" xlink:href="#p"/>
        <use x="152" y="248" xlink:href="#p"/>
        <use x="160" y="248" xlink:href="#p"/>
        <use x="192" y="248" xlink:href="#p"/>
        <use x="216" y="248" xlink:href="#p"/>
        <use x="224" y="248" xlink:href="#p"/>
        <use x="240" y="248" xlink:href="#p"/>
        <use x="272" y="248" xlink:href="#p"/>
        <use x="16" y="256" xlink:href="#p"/>
        <use x="24" y="256" xlink:href="#p"/>
        <use x="32" y="256" xlink:href="#p"/>
        <use x="40" y="256" xlink:href="#p"/>
        <use x="48" y="256" xlink:href="#p"/>
        <use x="56" y="256" xlink:href="#p"/>
        <use x="64" y="256" xlink:href="#p"/>
        <use x="96" y="256" xlink:href="#p"/>
        <use x="112" y="256" xlink:href="#p"/>
        <use x="120" y="256" xlink:href="#p"/>
        <use x="216" y="256" xlink:href="#p"/>
        <use x="224" y="256" xlink:href="#p"/>
        <use x="240" y="256" xlink:href="#p"/>
        <use x="256" y="256" xlink:href="#p"/>
        <use x="272" y="256" xlink:href="#p"/>
        <use x="280" y="256" xlink:href="#p"/>
        <use x="296" y="256" xlink:href="#p"/>
        <use x="304" y="256" xlink:href="#p"/>
        <use x="16" y="264" xlink:href="#p"/>
        <use x="64" y="264" xlink:href="#p"/>
        <use x="88" y="264" xlink:href="#p"/>
        <use x="112" y="264" xlink:href="#p"/>
        <use x="128" y="264" xlink:href="#p"/>
        <use x="152" y="264" xlink:href="#p"/>
        <use x="160" y="264" xlink:href="#p"/>
        <use x="168" y="264" xlink:href="#p"/>
        <use x="176" y="264" xlink:href="#p"/>
        <use x="192" y="264" xlink:href="#p"/>
        <use x="208" y="264" xlink:href="#p"/>
        <use x="224" y="264" xlink:href="#p"/>
        <use x="240" y="264" xlink:href="#p"/>
        <use x="272" y="264" xlink:href="#p"/>
        <use x="16" y="272" xlink:href="#p"/>
        <use x="32" y="272" xlink:href="#p"/>
        <use x="40" y="272" xlink:href="#p"/>
        <use x="48" y="272" xlink:href="#p"/>
        <use x="64" y="272" xlink:href="#p"/>
        <use x="80" y="272" xlink:href="#p"/>
        <use x="104" y="272" xlink:href="#p"/>
        <use x="112" y="272" xlink:href="#p"/>
        <use x="120" y="272" xlink:href="#p"/>
        <use x="160" y="272" xlink:href="#p"/>
        <use x="200" y="272" xlink:href="#p"/>
        <use x="216" y="272" xlink:href="#p"/>
        <use x="224" y="272" xlink:href="#p"/>
        <use x="232" y="272" xlink:href="#p"/>
        <use x="240" y="272" xlink:href="#p"/>
        <use x="248" y="272" xlink:href="#p"/>
        <use x="256" y="272" xlink:href="#p"/>
        <use x="264" y="272" xlink:href="#p"/>
        <use x="272" y="272" xlink:href="#p"/>
        <use x="288" y="272" xlink:href="#p"/>
        <use x="304" y="272" xlink:href="#p"/>
        <use x="16" y="280" xlink:href="#p"/>
        <use x="32" y="280" xlink:href="#p"/>
        <use x="40" y="280" xlink:href="#p"/>
        <use x="48" y="280" xlink:href="#p"/>
        <use x="64" y="280" xlink:href="#p"/>
        <use x="80" y="280" xlink:href="#p"/>
        <use x="88" y="280" xlink:href="#p"/>
        <use x="104" y="280" xlink:href="#p"/>
        <use x="128" y="280" xlink:href="#p"/>
        <use x="136" y="280" xlink:href="#p"/>
        <use x="144" y="280" xlink:href="#p"/>
        <use x="160" y="280" xlink:href="#p"/>
        <use x="168" y="280" xlink:href="#p"/>
        <use x="176" y="280" xlink:href="#p"/>
        <use x="192" y="280" xlink:href="#p"/>
        <use x="208" y="280" xlink:href="#p"/>
        <use x="216" y="280" xlink:href="#p"/>
        <use x="240" y="280" xlink:href="#p"/>
        <use x="256" y="280" xlink:href="#p"/>
        <use x="272" y="280" xlink:href="#p"/>
        <use x="288" y="280" xlink:href="#p"/>
        <use x="16" y="288" xlink:href="#p"/>
        <use x="32" y="288" xlink:href="#p"/>
        <use x="40" y="288" xlink:href="#p"/>
        <use x="48" y="288" xlink:href="#p"/>
        <use x="64" y="288" xlink:href="#p"/>
        <use x="80" y="288" xlink:href="#p"/>
        <use x="88" y="288" xlink:href="#p"/>
        <use x="96" y="288" xlink:href="#p"/>
        <use x="104" y="288" xlink:href="#p"/>
        <use x="112" y="288" xlink:href="#p"/>
        <use x="120" y="288" xlink:href="#p"/>
        <use x="128" y="288" xlink:href="#p"/>
        <use x="136" y="288" xlink:href="#p"/>
        <use x="216" y="288" xlink:href="#p"/>
        <use x="232" y="288" xlink:href="#p"/>
        <use x="240" y="288" xlink:href="#p"/>
        <use x="248" y="288" xlink:href="#p"/>
        <use x="304" y="288" xlink:href="#p"/>
        <use x="16" y="296" xlink:href="#p"/>
        <use x="64" y="296" xlink:href="#p"/>
        <use x="112" y="296" xlink:href="#p"/>
        <use x="120" y="296" xlink:href="#p"/>
        <use x="144" y="296" xlink:href="#p"/>
        <use x="152" y="296" xlink:href="#p"/>
        <use x="168" y="296" xlink:href="#p"/>
        <use x="176" y="296" xlink:href="#p"/>
        <use x="184" y="296" xlink:href="#p"/>
        <use x="192" y="296" xlink:href="#p"/>
        <use x="208" y="296" xlink:href="#p"/>
        <use x="232" y="296" xlink:href="#p"/>
        <use x="240" y="296" xlink:href="#p"/>
        <use x="248" y="296" xlink:href="#p"/>
        <use x="264" y="296" xlink:href="#p"/>
        <use x="272" y="296" xlink:href="#p"/>
        <use x="304" y="296" xlink:href="#p"/>
        <use x="16" y="304" xlink:href="#p"/>
        <use x="24" y="304" xlink:href="#p"/>
        <use x="32" y="304" xlink:href="#p"/>
        <use x="40" y="304" xlink:href="#p"/>
        <use x="48" y="304" xlink:href="#p"/>
        <use x="56" y="304" xlink:href="#p"/>
        <use x="64" y="304" xlink:href="#p"/>
        <use x="88" y="304" xlink:href="#p"/>
        <use x="96" y="304" xlink:href="#p"/>
        <use x="104" y="304" xlink:href="#p"/>
        <use x="112" y="304" xlink:href="#p"/>
        <use x="128" y="304" xlink:href="#p"/>
        <use x="136" y="304" xlink:href="#p"/>
        <use x="152" y="304" xlink:href="#p"/>
        <use x="192" y="304" xlink:href="#p"/>
        <use x="208" y="304" xlink:href="#p"/>
        <use x="224" y="304" xlink:href="#p"/>
        <use x="272" y="304" xlink:href="#p"/>
        <use x="288" y="304" xlink:href="#p"/>
        <use x="296" y="304" xlink:href="#p"/>
        <use x="304" y="304" xlink:href="#p"/>
</g>
</svg>