<?xml version="1.0" standalone="no"?>
<svg version="1.1" xmlns="http://www.w3.org/2000/svg" id="L4L_QR_code"
     class="img-fluid mw-75" data-copyright="L4L.su" data-modulecount="33" data-defaultsize="350"
     data-defaultclass="img-fluid mw-75" data-text="https://steamcommunity.com/groups/Left4Legend"
     data-color="rgb(245, 158, 11)" data-backcolor="none" data-typeicon="none" data-framesize="none" data-framewidth="0"
     data-titlelocation="none" data-titlefont="sans-serif" data-titletext="" data-typenumber="0"
     data-errorcorrectionlevel="Q" data-mode="Byte" data-mb="UTF-8" width="350px" height="350px" x="0px" y="0px"
     viewBox="0 0 350 350" preserveAspectRatio="xMinYMin meet">
    <rect width="100%" height="100%" fill="none" x="0" y="0"/>
    <path d="M10,10l10,0 0,10 -10,0 0,-10z M20,10l10,0 0,10 -10,0 0,-10z M30,10l10,0 0,10 -10,0 0,-10z M40,10l10,0 0,10 -10,0 0,-10z M50,10l10,0 0,10 -10,0 0,-10z M60,10l10,0 0,10 -10,0 0,-10z M70,10l10,0 0,10 -10,0 0,-10z M120,10l10,0 0,10 -10,0 0,-10z M140,10l10,0 0,10 -10,0 0,-10z M150,10l10,0 0,10 -10,0 0,-10z M160,10l10,0 0,10 -10,0 0,-10z M240,10l10,0 0,10 -10,0 0,-10z M270,10l10,0 0,10 -10,0 0,-10z M280,10l10,0 0,10 -10,0 0,-10z M290,10l10,0 0,10 -10,0 0,-10z M300,10l10,0 0,10 -10,0 0,-10z M310,10l10,0 0,10 -10,0 0,-10z M320,10l10,0 0,10 -10,0 0,-10z M330,10l10,0 0,10 -10,0 0,-10z M10,20l10,0 0,10 -10,0 0,-10z M70,20l10,0 0,10 -10,0 0,-10z M100,20l10,0 0,10 -10,0 0,-10z M120,20l10,0 0,10 -10,0 0,-10z M140,20l10,0 0,10 -10,0 0,-10z M160,20l10,0 0,10 -10,0 0,-10z M200,20l10,0 0,10 -10,0 0,-10z M210,20l10,0 0,10 -10,0 0,-10z M220,20l10,0 0,10 -10,0 0,-10z M230,20l10,0 0,10 -10,0 0,-10z M270,20l10,0 0,10 -10,0 0,-10z M330,20l10,0 0,10 -10,0 0,-10z M10,30l10,0 0,10 -10,0 0,-10z M30,30l10,0 0,10 -10,0 0,-10z M40,30l10,0 0,10 -10,0 0,-10z M50,30l10,0 0,10 -10,0 0,-10z M70,30l10,0 0,10 -10,0 0,-10z M90,30l10,0 0,10 -10,0 0,-10z M100,30l10,0 0,10 -10,0 0,-10z M110,30l10,0 0,10 -10,0 0,-10z M150,30l10,0 0,10 -10,0 0,-10z M180,30l10,0 0,10 -10,0 0,-10z M210,30l10,0 0,10 -10,0 0,-10z M220,30l10,0 0,10 -10,0 0,-10z M230,30l10,0 0,10 -10,0 0,-10z M240,30l10,0 0,10 -10,0 0,-10z M250,30l10,0 0,10 -10,0 0,-10z M270,30l10,0 0,10 -10,0 0,-10z M290,30l10,0 0,10 -10,0 0,-10z M300,30l10,0 0,10 -10,0 0,-10z M310,30l10,0 0,10 -10,0 0,-10z M330,30l10,0 0,10 -10,0 0,-10z M10,40l10,0 0,10 -10,0 0,-10z M30,40l10,0 0,10 -10,0 0,-10z M40,40l10,0 0,10 -10,0 0,-10z M50,40l10,0 0,10 -10,0 0,-10z M70,40l10,0 0,10 -10,0 0,-10z M110,40l10,0 0,10 -10,0 0,-10z M130,40l10,0 0,10 -10,0 0,-10z M170,40l10,0 0,10 -10,0 0,-10z M180,40l10,0 0,10 -10,0 0,-10z M270,40l10,0 0,10 -10,0 0,-10z M290,40l10,0 0,10 -10,0 0,-10z M300,40l10,0 0,10 -10,0 0,-10z M310,40l10,0 0,10 -10,0 0,-10z M330,40l10,0 0,10 -10,0 0,-10z M10,50l10,0 0,10 -10,0 0,-10z M30,50l10,0 0,10 -10,0 0,-10z M40,50l10,0 0,10 -10,0 0,-10z M50,50l10,0 0,10 -10,0 0,-10z M70,50l10,0 0,10 -10,0 0,-10z M90,50l10,0 0,10 -10,0 0,-10z M130,50l10,0 0,10 -10,0 0,-10z M160,50l10,0 0,10 -10,0 0,-10z M180,50l10,0 0,10 -10,0 0,-10z M190,50l10,0 0,10 -10,0 0,-10z M230,50l10,0 0,10 -10,0 0,-10z M240,50l10,0 0,10 -10,0 0,-10z M270,50l10,0 0,10 -10,0 0,-10z M290,50l10,0 0,10 -10,0 0,-10z M300,50l10,0 0,10 -10,0 0,-10z M310,50l10,0 0,10 -10,0 0,-10z M330,50l10,0 0,10 -10,0 0,-10z M10,60l10,0 0,10 -10,0 0,-10z M70,60l10,0 0,10 -10,0 0,-10z M90,60l10,0 0,10 -10,0 0,-10z M140,60l10,0 0,10 -10,0 0,-10z M190,60l10,0 0,10 -10,0 0,-10z M200,60l10,0 0,10 -10,0 0,-10z M210,60l10,0 0,10 -10,0 0,-10z M220,60l10,0 0,10 -10,0 0,-10z M270,60l10,0 0,10 -10,0 0,-10z M330,60l10,0 0,10 -10,0 0,-10z M10,70l10,0 0,10 -10,0 0,-10z M20,70l10,0 0,10 -10,0 0,-10z M30,70l10,0 0,10 -10,0 0,-10z M40,70l10,0 0,10 -10,0 0,-10z M50,70l10,0 0,10 -10,0 0,-10z M60,70l10,0 0,10 -10,0 0,-10z M70,70l10,0 0,10 -10,0 0,-10z M90,70l10,0 0,10 -10,0 0,-10z M110,70l10,0 0,10 -10,0 0,-10z M130,70l10,0 0,10 -10,0 0,-10z M150,70l10,0 0,10 -10,0 0,-10z M170,70l10,0 0,10 -10,0 0,-10z M190,70l10,0 0,10 -10,0 0,-10z M210,70l10,0 0,10 -10,0 0,-10z M230,70l10,0 0,10 -10,0 0,-10z M250,70l10,0 0,10 -10,0 0,-10z M270,70l10,0 0,10 -10,0 0,-10z M280,70l10,0 0,10 -10,0 0,-10z M290,70l10,0 0,10 -10,0 0,-10z M300,70l10,0 0,10 -10,0 0,-10z M310,70l10,0 0,10 -10,0 0,-10z M320,70l10,0 0,10 -10,0 0,-10z M330,70l10,0 0,10 -10,0 0,-10z M110,80l10,0 0,10 -10,0 0,-10z M120,80l10,0 0,10 -10,0 0,-10z M130,80l10,0 0,10 -10,0 0,-10z M140,80l10,0 0,10 -10,0 0,-10z M160,80l10,0 0,10 -10,0 0,-10z M170,80l10,0 0,10 -10,0 0,-10z M180,80l10,0 0,10 -10,0 0,-10z M190,80l10,0 0,10 -10,0 0,-10z M200,80l10,0 0,10 -10,0 0,-10z M210,80l10,0 0,10 -10,0 0,-10z M220,80l10,0 0,10 -10,0 0,-10z M240,80l10,0 0,10 -10,0 0,-10z M250,80l10,0 0,10 -10,0 0,-10z M20,90l10,0 0,10 -10,0 0,-10z M50,90l10,0 0,10 -10,0 0,-10z M70,90l10,0 0,10 -10,0 0,-10z M90,90l10,0 0,10 -10,0 0,-10z M100,90l10,0 0,10 -10,0 0,-10z M110,90l10,0 0,10 -10,0 0,-10z M170,90l10,0 0,10 -10,0 0,-10z M180,90l10,0 0,10 -10,0 0,-10z M190,90l10,0 0,10 -10,0 0,-10z M220,90l10,0 0,10 -10,0 0,-10z M230,90l10,0 0,10 -10,0 0,-10z M250,90l10,0 0,10 -10,0 0,-10z M260,90l10,0 0,10 -10,0 0,-10z M280,90l10,0 0,10 -10,0 0,-10z M290,90l10,0 0,10 -10,0 0,-10z M310,90l10,0 0,10 -10,0 0,-10z M20,100l10,0 0,10 -10,0 0,-10z M40,100l10,0 0,10 -10,0 0,-10z M60,100l10,0 0,10 -10,0 0,-10z M80,100l10,0 0,10 -10,0 0,-10z M90,100l10,0 0,10 -10,0 0,-10z M140,100l10,0 0,10 -10,0 0,-10z M150,100l10,0 0,10 -10,0 0,-10z M180,100l10,0 0,10 -10,0 0,-10z M190,100l10,0 0,10 -10,0 0,-10z M240,100l10,0 0,10 -10,0 0,-10z M260,100l10,0 0,10 -10,0 0,-10z M300,100l10,0 0,10 -10,0 0,-10z M310,100l10,0 0,10 -10,0 0,-10z M320,100l10,0 0,10 -10,0 0,-10z M10,110l10,0 0,10 -10,0 0,-10z M20,110l10,0 0,10 -10,0 0,-10z M50,110l10,0 0,10 -10,0 0,-10z M70,110l10,0 0,10 -10,0 0,-10z M110,110l10,0 0,10 -10,0 0,-10z M120,110l10,0 0,10 -10,0 0,-10z M130,110l10,0 0,10 -10,0 0,-10z M150,110l10,0 0,10 -10,0 0,-10z M170,110l10,0 0,10 -10,0 0,-10z M190,110l10,0 0,10 -10,0 0,-10z M210,110l10,0 0,10 -10,0 0,-10z M220,110l10,0 0,10 -10,0 0,-10z M240,110l10,0 0,10 -10,0 0,-10z M250,110l10,0 0,10 -10,0 0,-10z M260,110l10,0 0,10 -10,0 0,-10z M300,110l10,0 0,10 -10,0 0,-10z M320,110l10,0 0,10 -10,0 0,-10z M10,120l10,0 0,10 -10,0 0,-10z M50,120l10,0 0,10 -10,0 0,-10z M60,120l10,0 0,10 -10,0 0,-10z M80,120l10,0 0,10 -10,0 0,-10z M120,120l10,0 0,10 -10,0 0,-10z M130,120l10,0 0,10 -10,0 0,-10z M140,120l10,0 0,10 -10,0 0,-10z M150,120l10,0 0,10 -10,0 0,-10z M160,120l10,0 0,10 -10,0 0,-10z M170,120l10,0 0,10 -10,0 0,-10z M220,120l10,0 0,10 -10,0 0,-10z M230,120l10,0 0,10 -10,0 0,-10z M240,120l10,0 0,10 -10,0 0,-10z M260,120l10,0 0,10 -10,0 0,-10z M320,120l10,0 0,10 -10,0 0,-10z M330,120l10,0 0,10 -10,0 0,-10z M10,130l10,0 0,10 -10,0 0,-10z M20,130l10,0 0,10 -10,0 0,-10z M30,130l10,0 0,10 -10,0 0,-10z M40,130l10,0 0,10 -10,0 0,-10z M60,130l10,0 0,10 -10,0 0,-10z M70,130l10,0 0,10 -10,0 0,-10z M100,130l10,0 0,10 -10,0 0,-10z M120,130l10,0 0,10 -10,0 0,-10z M140,130l10,0 0,10 -10,0 0,-10z M150,130l10,0 0,10 -10,0 0,-10z M170,130l10,0 0,10 -10,0 0,-10z M210,130l10,0 0,10 -10,0 0,-10z M220,130l10,0 0,10 -10,0 0,-10z M250,130l10,0 0,10 -10,0 0,-10z M270,130l10,0 0,10 -10,0 0,-10z M280,130l10,0 0,10 -10,0 0,-10z M290,130l10,0 0,10 -10,0 0,-10z M300,130l10,0 0,10 -10,0 0,-10z M10,140l10,0 0,10 -10,0 0,-10z M20,140l10,0 0,10 -10,0 0,-10z M30,140l10,0 0,10 -10,0 0,-10z M40,140l10,0 0,10 -10,0 0,-10z M50,140l10,0 0,10 -10,0 0,-10z M60,140l10,0 0,10 -10,0 0,-10z M80,140l10,0 0,10 -10,0 0,-10z M100,140l10,0 0,10 -10,0 0,-10z M120,140l10,0 0,10 -10,0 0,-10z M130,140l10,0 0,10 -10,0 0,-10z M170,140l10,0 0,10 -10,0 0,-10z M180,140l10,0 0,10 -10,0 0,-10z M190,140l10,0 0,10 -10,0 0,-10z M220,140l10,0 0,10 -10,0 0,-10z M230,140l10,0 0,10 -10,0 0,-10z M240,140l10,0 0,10 -10,0 0,-10z M280,140l10,0 0,10 -10,0 0,-10z M300,140l10,0 0,10 -10,0 0,-10z M30,150l10,0 0,10 -10,0 0,-10z M60,150l10,0 0,10 -10,0 0,-10z M70,150l10,0 0,10 -10,0 0,-10z M90,150l10,0 0,10 -10,0 0,-10z M100,150l10,0 0,10 -10,0 0,-10z M110,150l10,0 0,10 -10,0 0,-10z M120,150l10,0 0,10 -10,0 0,-10z M170,150l10,0 0,10 -10,0 0,-10z M190,150l10,0 0,10 -10,0 0,-10z M210,150l10,0 0,10 -10,0 0,-10z M240,150l10,0 0,10 -10,0 0,-10z M260,150l10,0 0,10 -10,0 0,-10z M270,150l10,0 0,10 -10,0 0,-10z M320,150l10,0 0,10 -10,0 0,-10z M10,160l10,0 0,10 -10,0 0,-10z M30,160l10,0 0,10 -10,0 0,-10z M40,160l10,0 0,10 -10,0 0,-10z M110,160l10,0 0,10 -10,0 0,-10z M120,160l10,0 0,10 -10,0 0,-10z M140,160l10,0 0,10 -10,0 0,-10z M160,160l10,0 0,10 -10,0 0,-10z M170,160l10,0 0,10 -10,0 0,-10z M180,160l10,0 0,10 -10,0 0,-10z M210,160l10,0 0,10 -10,0 0,-10z M220,160l10,0 0,10 -10,0 0,-10z M240,160l10,0 0,10 -10,0 0,-10z M250,160l10,0 0,10 -10,0 0,-10z M260,160l10,0 0,10 -10,0 0,-10z M270,160l10,0 0,10 -10,0 0,-10z M300,160l10,0 0,10 -10,0 0,-10z M10,170l10,0 0,10 -10,0 0,-10z M20,170l10,0 0,10 -10,0 0,-10z M40,170l10,0 0,10 -10,0 0,-10z M60,170l10,0 0,10 -10,0 0,-10z M70,170l10,0 0,10 -10,0 0,-10z M80,170l10,0 0,10 -10,0 0,-10z M90,170l10,0 0,10 -10,0 0,-10z M100,170l10,0 0,10 -10,0 0,-10z M120,170l10,0 0,10 -10,0 0,-10z M130,170l10,0 0,10 -10,0 0,-10z M160,170l10,0 0,10 -10,0 0,-10z M170,170l10,0 0,10 -10,0 0,-10z M180,170l10,0 0,10 -10,0 0,-10z M190,170l10,0 0,10 -10,0 0,-10z M200,170l10,0 0,10 -10,0 0,-10z M210,170l10,0 0,10 -10,0 0,-10z M220,170l10,0 0,10 -10,0 0,-10z M230,170l10,0 0,10 -10,0 0,-10z M240,170l10,0 0,10 -10,0 0,-10z M250,170l10,0 0,10 -10,0 0,-10z M270,170l10,0 0,10 -10,0 0,-10z M290,170l10,0 0,10 -10,0 0,-10z M320,170l10,0 0,10 -10,0 0,-10z M10,180l10,0 0,10 -10,0 0,-10z M30,180l10,0 0,10 -10,0 0,-10z M60,180l10,0 0,10 -10,0 0,-10z M80,180l10,0 0,10 -10,0 0,-10z M100,180l10,0 0,10 -10,0 0,-10z M140,180l10,0 0,10 -10,0 0,-10z M240,180l10,0 0,10 -10,0 0,-10z M300,180l10,0 0,10 -10,0 0,-10z M310,180l10,0 0,10 -10,0 0,-10z M320,180l10,0 0,10 -10,0 0,-10z M30,190l10,0 0,10 -10,0 0,-10z M70,190l10,0 0,10 -10,0 0,-10z M80,190l10,0 0,10 -10,0 0,-10z M120,190l10,0 0,10 -10,0 0,-10z M150,190l10,0 0,10 -10,0 0,-10z M160,190l10,0 0,10 -10,0 0,-10z M180,190l10,0 0,10 -10,0 0,-10z M220,190l10,0 0,10 -10,0 0,-10z M240,190l10,0 0,10 -10,0 0,-10z M250,190l10,0 0,10 -10,0 0,-10z M280,190l10,0 0,10 -10,0 0,-10z M300,190l10,0 0,10 -10,0 0,-10z M320,190l10,0 0,10 -10,0 0,-10z M20,200l10,0 0,10 -10,0 0,-10z M30,200l10,0 0,10 -10,0 0,-10z M40,200l10,0 0,10 -10,0 0,-10z M50,200l10,0 0,10 -10,0 0,-10z M60,200l10,0 0,10 -10,0 0,-10z M100,200l10,0 0,10 -10,0 0,-10z M110,200l10,0 0,10 -10,0 0,-10z M130,200l10,0 0,10 -10,0 0,-10z M150,200l10,0 0,10 -10,0 0,-10z M160,200l10,0 0,10 -10,0 0,-10z M200,200l10,0 0,10 -10,0 0,-10z M210,200l10,0 0,10 -10,0 0,-10z M220,200l10,0 0,10 -10,0 0,-10z M230,200l10,0 0,10 -10,0 0,-10z M240,200l10,0 0,10 -10,0 0,-10z M250,200l10,0 0,10 -10,0 0,-10z M280,200l10,0 0,10 -10,0 0,-10z M320,200l10,0 0,10 -10,0 0,-10z M330,200l10,0 0,10 -10,0 0,-10z M10,210l10,0 0,10 -10,0 0,-10z M40,210l10,0 0,10 -10,0 0,-10z M70,210l10,0 0,10 -10,0 0,-10z M80,210l10,0 0,10 -10,0 0,-10z M120,210l10,0 0,10 -10,0 0,-10z M170,210l10,0 0,10 -10,0 0,-10z M180,210l10,0 0,10 -10,0 0,-10z M210,210l10,0 0,10 -10,0 0,-10z M230,210l10,0 0,10 -10,0 0,-10z M250,210l10,0 0,10 -10,0 0,-10z M270,210l10,0 0,10 -10,0 0,-10z M290,210l10,0 0,10 -10,0 0,-10z M300,210l10,0 0,10 -10,0 0,-10z M320,210l10,0 0,10 -10,0 0,-10z M330,210l10,0 0,10 -10,0 0,-10z M10,220l10,0 0,10 -10,0 0,-10z M50,220l10,0 0,10 -10,0 0,-10z M60,220l10,0 0,10 -10,0 0,-10z M90,220l10,0 0,10 -10,0 0,-10z M100,220l10,0 0,10 -10,0 0,-10z M110,220l10,0 0,10 -10,0 0,-10z M120,220l10,0 0,10 -10,0 0,-10z M130,220l10,0 0,10 -10,0 0,-10z M150,220l10,0 0,10 -10,0 0,-10z M160,220l10,0 0,10 -10,0 0,-10z M180,220l10,0 0,10 -10,0 0,-10z M190,220l10,0 0,10 -10,0 0,-10z M220,220l10,0 0,10 -10,0 0,-10z M280,220l10,0 0,10 -10,0 0,-10z M300,220l10,0 0,10 -10,0 0,-10z M320,220l10,0 0,10 -10,0 0,-10z M50,230l10,0 0,10 -10,0 0,-10z M60,230l10,0 0,10 -10,0 0,-10z M70,230l10,0 0,10 -10,0 0,-10z M140,230l10,0 0,10 -10,0 0,-10z M150,230l10,0 0,10 -10,0 0,-10z M160,230l10,0 0,10 -10,0 0,-10z M170,230l10,0 0,10 -10,0 0,-10z M190,230l10,0 0,10 -10,0 0,-10z M210,230l10,0 0,10 -10,0 0,-10z M220,230l10,0 0,10 -10,0 0,-10z M240,230l10,0 0,10 -10,0 0,-10z M250,230l10,0 0,10 -10,0 0,-10z M280,230l10,0 0,10 -10,0 0,-10z M310,230l10,0 0,10 -10,0 0,-10z M320,230l10,0 0,10 -10,0 0,-10z M30,240l10,0 0,10 -10,0 0,-10z M50,240l10,0 0,10 -10,0 0,-10z M100,240l10,0 0,10 -10,0 0,-10z M140,240l10,0 0,10 -10,0 0,-10z M150,240l10,0 0,10 -10,0 0,-10z M180,240l10,0 0,10 -10,0 0,-10z M200,240l10,0 0,10 -10,0 0,-10z M210,240l10,0 0,10 -10,0 0,-10z M220,240l10,0 0,10 -10,0 0,-10z M250,240l10,0 0,10 -10,0 0,-10z M260,240l10,0 0,10 -10,0 0,-10z M270,240l10,0 0,10 -10,0 0,-10z M280,240l10,0 0,10 -10,0 0,-10z M290,240l10,0 0,10 -10,0 0,-10z M320,240l10,0 0,10 -10,0 0,-10z M10,250l10,0 0,10 -10,0 0,-10z M20,250l10,0 0,10 -10,0 0,-10z M40,250l10,0 0,10 -10,0 0,-10z M70,250l10,0 0,10 -10,0 0,-10z M80,250l10,0 0,10 -10,0 0,-10z M110,250l10,0 0,10 -10,0 0,-10z M130,250l10,0 0,10 -10,0 0,-10z M140,250l10,0 0,10 -10,0 0,-10z M150,250l10,0 0,10 -10,0 0,-10z M180,250l10,0 0,10 -10,0 0,-10z M200,250l10,0 0,10 -10,0 0,-10z M210,250l10,0 0,10 -10,0 0,-10z M220,250l10,0 0,10 -10,0 0,-10z M230,250l10,0 0,10 -10,0 0,-10z M240,250l10,0 0,10 -10,0 0,-10z M250,250l10,0 0,10 -10,0 0,-10z M260,250l10,0 0,10 -10,0 0,-10z M270,250l10,0 0,10 -10,0 0,-10z M280,250l10,0 0,10 -10,0 0,-10z M290,250l10,0 0,10 -10,0 0,-10z M90,260l10,0 0,10 -10,0 0,-10z M110,260l10,0 0,10 -10,0 0,-10z M120,260l10,0 0,10 -10,0 0,-10z M140,260l10,0 0,10 -10,0 0,-10z M150,260l10,0 0,10 -10,0 0,-10z M160,260l10,0 0,10 -10,0 0,-10z M180,260l10,0 0,10 -10,0 0,-10z M190,260l10,0 0,10 -10,0 0,-10z M220,260l10,0 0,10 -10,0 0,-10z M250,260l10,0 0,10 -10,0 0,-10z M290,260l10,0 0,10 -10,0 0,-10z M310,260l10,0 0,10 -10,0 0,-10z M320,260l10,0 0,10 -10,0 0,-10z M10,270l10,0 0,10 -10,0 0,-10z M20,270l10,0 0,10 -10,0 0,-10z M30,270l10,0 0,10 -10,0 0,-10z M40,270l10,0 0,10 -10,0 0,-10z M50,270l10,0 0,10 -10,0 0,-10z M60,270l10,0 0,10 -10,0 0,-10z M70,270l10,0 0,10 -10,0 0,-10z M110,270l10,0 0,10 -10,0 0,-10z M130,270l10,0 0,10 -10,0 0,-10z M140,270l10,0 0,10 -10,0 0,-10z M170,270l10,0 0,10 -10,0 0,-10z M190,270l10,0 0,10 -10,0 0,-10z M210,270l10,0 0,10 -10,0 0,-10z M220,270l10,0 0,10 -10,0 0,-10z M250,270l10,0 0,10 -10,0 0,-10z M270,270l10,0 0,10 -10,0 0,-10z M290,270l10,0 0,10 -10,0 0,-10z M300,270l10,0 0,10 -10,0 0,-10z M320,270l10,0 0,10 -10,0 0,-10z M10,280l10,0 0,10 -10,0 0,-10z M70,280l10,0 0,10 -10,0 0,-10z M100,280l10,0 0,10 -10,0 0,-10z M110,280l10,0 0,10 -10,0 0,-10z M120,280l10,0 0,10 -10,0 0,-10z M130,280l10,0 0,10 -10,0 0,-10z M140,280l10,0 0,10 -10,0 0,-10z M170,280l10,0 0,10 -10,0 0,-10z M190,280l10,0 0,10 -10,0 0,-10z M210,280l10,0 0,10 -10,0 0,-10z M220,280l10,0 0,10 -10,0 0,-10z M230,280l10,0 0,10 -10,0 0,-10z M250,280l10,0 0,10 -10,0 0,-10z M290,280l10,0 0,10 -10,0 0,-10z M330,280l10,0 0,10 -10,0 0,-10z M10,290l10,0 0,10 -10,0 0,-10z M30,290l10,0 0,10 -10,0 0,-10z M40,290l10,0 0,10 -10,0 0,-10z M50,290l10,0 0,10 -10,0 0,-10z M70,290l10,0 0,10 -10,0 0,-10z M90,290l10,0 0,10 -10,0 0,-10z M100,290l10,0 0,10 -10,0 0,-10z M150,290l10,0 0,10 -10,0 0,-10z M200,290l10,0 0,10 -10,0 0,-10z M210,290l10,0 0,10 -10,0 0,-10z M220,290l10,0 0,10 -10,0 0,-10z M230,290l10,0 0,10 -10,0 0,-10z M250,290l10,0 0,10 -10,0 0,-10z M260,290l10,0 0,10 -10,0 0,-10z M270,290l10,0 0,10 -10,0 0,-10z M280,290l10,0 0,10 -10,0 0,-10z M290,290l10,0 0,10 -10,0 0,-10z M300,290l10,0 0,10 -10,0 0,-10z M10,300l10,0 0,10 -10,0 0,-10z M30,300l10,0 0,10 -10,0 0,-10z M40,300l10,0 0,10 -10,0 0,-10z M50,300l10,0 0,10 -10,0 0,-10z M70,300l10,0 0,10 -10,0 0,-10z M130,300l10,0 0,10 -10,0 0,-10z M140,300l10,0 0,10 -10,0 0,-10z M180,300l10,0 0,10 -10,0 0,-10z M220,300l10,0 0,10 -10,0 0,-10z M250,300l10,0 0,10 -10,0 0,-10z M270,300l10,0 0,10 -10,0 0,-10z M280,300l10,0 0,10 -10,0 0,-10z M290,300l10,0 0,10 -10,0 0,-10z M300,300l10,0 0,10 -10,0 0,-10z M310,300l10,0 0,10 -10,0 0,-10z M320,300l10,0 0,10 -10,0 0,-10z M10,310l10,0 0,10 -10,0 0,-10z M30,310l10,0 0,10 -10,0 0,-10z M40,310l10,0 0,10 -10,0 0,-10z M50,310l10,0 0,10 -10,0 0,-10z M70,310l10,0 0,10 -10,0 0,-10z M120,310l10,0 0,10 -10,0 0,-10z M150,310l10,0 0,10 -10,0 0,-10z M160,310l10,0 0,10 -10,0 0,-10z M180,310l10,0 0,10 -10,0 0,-10z M210,310l10,0 0,10 -10,0 0,-10z M220,310l10,0 0,10 -10,0 0,-10z M260,310l10,0 0,10 -10,0 0,-10z M270,310l10,0 0,10 -10,0 0,-10z M280,310l10,0 0,10 -10,0 0,-10z M290,310l10,0 0,10 -10,0 0,-10z M310,310l10,0 0,10 -10,0 0,-10z M10,320l10,0 0,10 -10,0 0,-10z M70,320l10,0 0,10 -10,0 0,-10z M90,320l10,0 0,10 -10,0 0,-10z M120,320l10,0 0,10 -10,0 0,-10z M130,320l10,0 0,10 -10,0 0,-10z M140,320l10,0 0,10 -10,0 0,-10z M150,320l10,0 0,10 -10,0 0,-10z M170,320l10,0 0,10 -10,0 0,-10z M180,320l10,0 0,10 -10,0 0,-10z M190,320l10,0 0,10 -10,0 0,-10z M210,320l10,0 0,10 -10,0 0,-10z M220,320l10,0 0,10 -10,0 0,-10z M240,320l10,0 0,10 -10,0 0,-10z M250,320l10,0 0,10 -10,0 0,-10z M10,330l10,0 0,10 -10,0 0,-10z M20,330l10,0 0,10 -10,0 0,-10z M30,330l10,0 0,10 -10,0 0,-10z M40,330l10,0 0,10 -10,0 0,-10z M50,330l10,0 0,10 -10,0 0,-10z M60,330l10,0 0,10 -10,0 0,-10z M70,330l10,0 0,10 -10,0 0,-10z M100,330l10,0 0,10 -10,0 0,-10z M110,330l10,0 0,10 -10,0 0,-10z M140,330l10,0 0,10 -10,0 0,-10z M160,330l10,0 0,10 -10,0 0,-10z M170,330l10,0 0,10 -10,0 0,-10z M200,330l10,0 0,10 -10,0 0,-10z M220,330l10,0 0,10 -10,0 0,-10z M230,330l10,0 0,10 -10,0 0,-10z M250,330l10,0 0,10 -10,0 0,-10z M300,330l10,0 0,10 -10,0 0,-10z M330,330l10,0 0,10 -10,0 0,-10z "
          stroke="transparent" fill="rgb(245, 158, 11)"/>
</svg>